<?xml version="1.0" encoding="UTF-8" standalone="no"?>
<!-- Created with Inkscape (http://www.inkscape.org/) -->

<svg
   width="145.2897mm"
   height="118.5484mm"
   viewBox="0 0 145.2897 118.5484"
   version="1.1"
   id="svg9822"
   inkscape:version="1.1.1 (3bf5ae0d25, 2021-09-20)"
   sodipodi:docname="four_legged_monster.svg"
   xmlns:inkscape="http://www.inkscape.org/namespaces/inkscape"
   xmlns:sodipodi="http://sodipodi.sourceforge.net/DTD/sodipodi-0.dtd"
   xmlns="http://www.w3.org/2000/svg"
   xmlns:svg="http://www.w3.org/2000/svg">
  <sodipodi:namedview
     id="namedview9824"
     pagecolor="#ffffff"
     bordercolor="#666666"
     borderopacity="1.0"
     inkscape:pageshadow="2"
     inkscape:pageopacity="0.0"
     inkscape:pagecheckerboard="0"
     inkscape:document-units="mm"
     showgrid="false"
     inkscape:zoom="0.9612704"
     inkscape:cx="352.13817"
     inkscape:cy="11.44319"
     inkscape:window-width="1920"
     inkscape:window-height="935"
     inkscape:window-x="0"
     inkscape:window-y="32"
     inkscape:window-maximized="1"
     inkscape:current-layer="layer1" />
  <defs
     id="defs9819" />
  <g
     inkscape:label="Layer 1"
     inkscape:groupmode="layer"
     id="layer1"
     transform="translate(-27.439499,-80.321644)">
    <path
       style="fill:none;stroke:#000000;stroke-width:0.8;stroke-linecap:butt;stroke-linejoin:miter;stroke-miterlimit:4;stroke-dasharray:none;stroke-opacity:1"
       d="m 70.865381,141.46981 c 0,-0.58205 -0.566972,-0.23256 -0.996059,-0.50093 -2.599071,-1.62558 -3.890059,-2.43363 -6.617123,-2.21829 -2.325282,0.18362 -3.686091,0.0941 -6.163466,1.30533 0,0 -3.053751,1.58425 -3.867746,2.47017 -0.965514,1.05082 -2.517982,3.93923 -3.269658,5.20573 -0.895725,1.64059 -1.23154,3.77506 -1.171192,7.19985 0.05396,3.06247 0.479814,7.72857 -0.485526,9.83616 -2.478556,2.60907 -7.030385,4.95059 -10.387,8.22133 -2.102979,2.04916 -6.175433,6.46226 -7.761549,9.01922 -1.162734,1.87443 -2.914258,7.07053 -2.069399,9.07019 0.204515,0.48405 3.082766,2.85929 3.507632,3.16196 4.464444,3.18045 6.576521,1.71835 11.886934,-0.29702 3.353653,-1.27277 5.935903,-2.33945 9.070183,-4.98067 3.444864,-2.69176 5.024767,-4.86201 8.559319,-7.38338 1.665223,-1.15977 4.538178,0.96899 5.814231,1.54181 3.346355,1.55213 5.960895,1.69131 8.371426,1.14988 1.889209,-0.42435 4.556847,-1.1197 7.716577,-2.75672 2.256852,-1.16925 4.307285,-3.31226 4.307285,-3.31226 2.101927,-1.70324 3.26599,-2.71899 4.520478,-5.38992 0,0 0.530192,-4.33982 -0.0315,-8.84095"
       id="path9916"
       sodipodi:nodetypes="csscscscssssscccssscc" />
    <path
       style="fill:none;stroke:#000000;stroke-width:0.8;stroke-linecap:butt;stroke-linejoin:miter;stroke-miterlimit:4;stroke-dasharray:none;stroke-opacity:1"
       d="m 91.799227,163.9713 c 14.574463,-7.13778 33.137793,-7.59545 44.184693,-20.52956 1.22205,-1.43081 2.09438,-3.79177 2.95044,-5.43422 0.69322,-1.33 1.90882,-3.57066 1.90882,-4.95506"
       id="path9918" />
    <path
       style="fill:none;stroke:#000000;stroke-width:0.8;stroke-linecap:butt;stroke-linejoin:miter;stroke-miterlimit:4;stroke-dasharray:none;stroke-opacity:1"
       d="m 70.865375,141.46981 c 1.99197,-1.25521 5.855714,-4.39375 9.553417,-6.66912 5.709671,-3.51343 10.203956,-5.23753 13.673265,-6.96312 3.824253,-1.90213 7.300093,-2.40528 11.547873,-5.80867 1.43949,-1.15335 3.65326,-2.85537 4.95688,-4.18153 2.23251,-1.85425 4.24119,-3.09668 7.68229,-4.51871 1.65586,-0.81507 0.34262,-0.74479 1.25182,-0.74479"
       id="path9920"
       sodipodi:nodetypes="csssccc" />
    <path
       style="fill:none;stroke:#000000;stroke-width:0.8;stroke-linecap:butt;stroke-linejoin:miter;stroke-miterlimit:4;stroke-dasharray:none;stroke-opacity:1"
       d="m 140.84318,133.05246 c 2.56502,-5.62633 2.41532,-11.37738 2.41532,-17.30507"
       id="path9922" />
    <path
       style="fill:none;stroke:#000000;stroke-width:0.8;stroke-linecap:butt;stroke-linejoin:miter;stroke-miterlimit:4;stroke-dasharray:none;stroke-opacity:1"
       d="m 119.53092,112.58387 c 1.06801,-0.47483 2.10985,-1.01554 3.20402,-1.42451 2.39595,-0.89555 10.08911,-0.32554 12.40108,0.50456 2.31196,0.83011 3.53013,0.0252 7.12751,-1.81876 1.72154,-0.88244 3.22823,-2.31118 3.83903,-3.53497 0.91183,-1.82693 0.25147,-4.765 0.76577,-5.90689 0.59803,-1.327754 3.79678,-1.101531 4.87019,-1.53519 0.96869,-0.391341 1.83132,-1.014405 2.71556,-1.574908 2.12164,-1.344867 4.38589,-3.27079 4.88215,-5.861017 0.16678,-0.870513 0.0916,-1.775225 0.36712,-2.613614 0.40876,-1.243867 4.40392,-0.851824 5.76954,-1.861941 0,0 1.78697,-0.938751 2.47286,-1.576455 1.13613,-1.425121 1.61631,-2.900346 3.11495,-4.657859"
       id="path9924"
       sodipodi:nodetypes="cszsssssscccc" />
    <path
       style="fill:none;stroke:#000000;stroke-width:0.8;stroke-linecap:butt;stroke-linejoin:miter;stroke-miterlimit:4;stroke-dasharray:none;stroke-opacity:1"
       d="m 143.2585,115.74739 c 0.47459,-0.38037 2.38037,-1.1097 3.75942,-1.98645 1.75473,-1.14959 3.10995,-1.96678 4.40761,-3.13878 1.13712,-1.36468 1.71218,-2.85312 0.89336,-4.68671 -0.57066,-1.15771 0.77836,-2.37016 1.82806,-2.8476 2.24991,-1.0974 4.07337,-1.30551 5.69691,-2.3797 1.17082,-0.741841 2.11885,-1.87975 2.63057,-2.954695 1.01817,-2.138837 0.56614,-3.266003 2.79173,-4.780307 2.20213,-1.498347 4.68049,-1.240569 6.00095,-3.919426 0.41978,-0.851619 1.31782,-2.343107 0.99524,-4.769562 -0.61795,-1.415617 -0.71306,-3.631795 -1.20165,-3.561844"
       id="path9926"
       sodipodi:nodetypes="ccccccssscc" />
    <path
       style="fill:none;stroke:#000000;stroke-width:0.8;stroke-linecap:butt;stroke-linejoin:miter;stroke-miterlimit:4;stroke-dasharray:none;stroke-opacity:1"
       d="m 87.31025,178.20217 c -0.882184,4.40282 -5.018591,11.89076 -10.625081,16.80674 3.432238,2.54361 9.064145,4.03592 13.73239,3.2467 3.449041,-0.58308 5.478413,-6.25373 6.99907,-9.42332 2.651831,-5.52736 3.474451,-10.48756 3.753411,-16.22986 -0.1493,-4.03168 -0.96141,-7.41981 -2.429763,-11.35701"
       id="path9928"
       sodipodi:nodetypes="ccsscc" />
    <path
       style="fill:none;stroke:#000000;stroke-width:0.8;stroke-linecap:butt;stroke-linejoin:miter;stroke-miterlimit:4;stroke-dasharray:none;stroke-opacity:1"
       d="m 128.00971,150.21091 c 2.44692,5.47883 4.80076,9.73523 5.10215,14.6069 0.23051,3.72608 0.16059,8.8024 -0.088,11.23833 -0.1903,1.86468 -0.63569,6.06745 -0.63569,6.06745 -1.07814,2.55846 -1.76439,4.71167 -1.47585,6.81648 3.33567,0.74872 7.1218,0.0939 11.45774,-1.30708 0,0 5.96713,-1.02085 6.49909,-3.27433 0.68528,-5.93875 0.42254,-12.98736 -0.11219,-19.21063 -1.15326,-5.04303 -2.31053,-8.30086 -3.87359,-12.85601 -2.72393,-4.81157 -6.12152,-13.96206 -6.17312,-13.0701"
       id="path9930"
       sodipodi:nodetypes="cssccccccc" />
    <path
       style="fill:none;stroke:#000000;stroke-width:0.8;stroke-linecap:butt;stroke-linejoin:miter;stroke-miterlimit:4;stroke-dasharray:none;stroke-opacity:1"
       d="m 63.865207,181.50968 c -0.776491,3.35234 -2.249927,9.78281 -2.86013,16.12864 0,0 7.021117,0.70297 10.416332,0.76648 1.145071,-2.99154 1.727828,-9.48001 2.719697,-13.95558"
       id="path9932"
       sodipodi:nodetypes="cccc" />
    <path
       style="fill:none;stroke:#000000;stroke-width:0.8;stroke-linecap:butt;stroke-linejoin:miter;stroke-miterlimit:4;stroke-dasharray:none;stroke-opacity:1"
       d="m 110.82942,157.41159 c 0.36652,3.35893 0.93258,9.70231 1.24937,14.2455 3.96376,-0.41026 7.44465,-0.35517 10.63469,-1.5003 -0.87483,-4.01856 -0.97169,-11.5258 -2.49103,-15.88342"
       id="path9934"
       sodipodi:nodetypes="cccc" />
    <path
       style="fill:none;stroke:#000000;stroke-width:0.8;stroke-linecap:butt;stroke-linejoin:miter;stroke-miterlimit:4;stroke-dasharray:none;stroke-opacity:1"
       d="m 62.031691,158.57154 c 2.645353,-0.14411 4.46316,0.17464 6.319643,-1.21923 2.366249,-1.77661 0.446807,-5.3959 -0.323135,-5.98871 -2.240165,-1.72478 -5.821966,-0.51749 -6.965649,1.09441 0,0 -0.869767,5.23489 0.969141,6.11353 z"
       id="path9936"
       sodipodi:nodetypes="csscc" />
    <path
       style="fill:none;stroke:#000000;stroke-width:0.8;stroke-linecap:butt;stroke-linejoin:miter;stroke-miterlimit:4;stroke-dasharray:none;stroke-opacity:1"
       d="m 70.003325,166.94815 c -0.620271,1.71686 -0.894547,2.86479 -0.905125,4.41001 -0.02076,3.0341 5.460997,3.07425 6.680584,1.3336 1.278745,-1.82508 1.131733,-3.12517 0.204624,-5.01757 -1.526185,-3.11522 -2.204695,-4.56548 -5.980083,-0.72604 z"
       id="path9938"
       sodipodi:nodetypes="csssc" />
  </g>
</svg>
