<?xml version="1.0" encoding="UTF-8" standalone="no"?>
<!-- Created with Inkscape (http://www.inkscape.org/) -->

<svg
   width="210mm"
   height="297mm"
   viewBox="0 0 210 297"
   version="1.1"
   id="svg9822"
   inkscape:version="1.1.1 (3bf5ae0d25, 2021-09-20)"
   sodipodi:docname="four_legged_monster.svg"
   xmlns:inkscape="http://www.inkscape.org/namespaces/inkscape"
   xmlns:sodipodi="http://sodipodi.sourceforge.net/DTD/sodipodi-0.dtd"
   xmlns="http://www.w3.org/2000/svg"
   xmlns:svg="http://www.w3.org/2000/svg">
  <sodipodi:namedview
     id="namedview9824"
     pagecolor="#ffffff"
     bordercolor="#666666"
     borderopacity="1.0"
     inkscape:pageshadow="2"
     inkscape:pageopacity="0.0"
     inkscape:pagecheckerboard="0"
     inkscape:document-units="mm"
     showgrid="false"
     inkscape:zoom="0.4806352"
     inkscape:cx="566.95806"
     inkscape:cy="391.14905"
     inkscape:window-width="1920"
     inkscape:window-height="935"
     inkscape:window-x="0"
     inkscape:window-y="32"
     inkscape:window-maximized="1"
     inkscape:current-layer="layer1" />
  <defs
     id="defs9819" />
  <g
     inkscape:label="Layer 1"
     inkscape:groupmode="layer"
     id="layer1">
    <path
       style="fill:none;stroke:#000000;stroke-width:0.8;stroke-linecap:butt;stroke-linejoin:miter;stroke-opacity:1;stroke-miterlimit:4;stroke-dasharray:none"
       d="m 70.865381,141.46981 c 0,-0.58205 -0.517277,-0.3369 -0.996059,-0.50093 -2.461271,-0.84318 -4.815157,-2.00337 -7.305519,-2.75352 -1.621518,-0.48845 -1.724544,0.18309 -3.115247,0.37238 -0.481114,0.0654 -0.984658,-0.11659 -1.456278,0 -0.114944,0.0284 0.09321,0.28617 0,0.36003 -0.119244,0.0945 -0.32667,-0.083 -0.454056,0 -4.813436,3.13273 -5.892569,16.62208 -6.320752,20.02053 -0.156493,1.24211 -0.153739,2.49956 -0.230613,3.74934 -2.478556,2.60907 -11.638298,8.41226 -14.994913,11.683 -2.102979,2.04916 -4.259766,5.05078 -5.845882,7.60774 -1.162734,1.87443 -2.914258,7.07053 -2.069399,9.07019 0.204515,0.48405 0.676482,0.81449 1.101348,1.11716 4.464444,3.18045 9.483019,4.95461 14.793432,2.93924 3.353653,-1.27277 6.234246,-3.39329 8.569969,-6.17213 3.444864,-2.69176 5.63644,-5.25995 9.170992,-7.78132 1.062378,1.17273 2.780828,1.29683 4.056881,1.86965 3.346355,1.55213 -2.080382,1.66277 5.447864,1.79932 3.318728,0.0602 8.862999,-1.83272 11.925584,-3.13097 4.099724,-1.73788 7.433507,-6.23634 8.687995,-8.90727 0,0 0.530192,-4.33982 -0.0315,-8.84095"
       id="path9916"
       sodipodi:nodetypes="csscsscscssssscccsscc" />
    <path
       style="fill:none;stroke:#000000;stroke-width:0.8;stroke-linecap:butt;stroke-linejoin:miter;stroke-opacity:1;stroke-miterlimit:4;stroke-dasharray:none"
       d="m 91.799227,163.9713 c 14.574463,-7.13778 33.137793,-7.59545 44.184693,-20.52956 1.22205,-1.43081 2.09438,-3.79177 2.95044,-5.43422 0.69322,-1.33 1.90882,-3.57066 1.90882,-4.95506"
       id="path9918" />
    <path
       style="fill:none;stroke:#000000;stroke-width:0.8;stroke-linecap:butt;stroke-linejoin:miter;stroke-opacity:1;stroke-miterlimit:4;stroke-dasharray:none"
       d="m 70.865375,141.46981 c 1.99197,-1.25521 3.894825,-2.66922 5.975908,-3.7656 16.041293,-8.45107 6.65608,-2.13374 22.249565,-10.97816 0.247308,-0.14027 5.472302,-3.75599 6.549082,-4.69715 1.38881,-1.2139 3.12927,-2.80269 4.43289,-4.12885 0.33242,-0.33817 0.62352,-1.2585 1.18988,-1.50959 2.1249,-0.94207 4.86931,-2.00493 7.0164,-3.0618 1.65586,-0.81507 0.34262,-0.74479 1.25182,-0.74479"
       id="path9920" />
    <path
       style="fill:none;stroke:#000000;stroke-width:0.8;stroke-linecap:butt;stroke-linejoin:miter;stroke-opacity:1;stroke-miterlimit:4;stroke-dasharray:none"
       d="m 140.84318,133.05246 c 2.56502,-5.62633 2.41532,-11.37738 2.41532,-17.30507"
       id="path9922" />
    <path
       style="fill:none;stroke:#000000;stroke-width:0.8;stroke-linecap:butt;stroke-linejoin:miter;stroke-opacity:1;stroke-miterlimit:4;stroke-dasharray:none"
       d="m 119.53092,112.58387 c 1.06801,-0.47483 2.10985,-1.01554 3.20402,-1.42451 2.39595,-0.89555 10.08911,-0.32554 12.40108,0.50456 2.31196,0.83011 3.53013,0.0252 7.12751,-1.81876 1.72154,-0.88244 3.22823,-2.31118 3.83903,-3.53497 0.91183,-1.82693 0.25147,-4.765 0.76577,-5.90689 0.59803,-1.327754 3.79678,-1.101531 4.87019,-1.53519 0.96869,-0.391341 1.83132,-1.014405 2.71556,-1.574908 2.12164,-1.344867 4.38589,-3.27079 4.88215,-5.861017 0.16678,-0.870513 0.0916,-1.775225 0.36712,-2.613614 0.40876,-1.243867 4.40392,-0.851824 5.76954,-1.861941 0,0 1.78697,-0.938751 2.47286,-1.576455 1.13613,-1.425121 1.61631,-2.900346 3.11495,-4.657859"
       id="path9924"
       sodipodi:nodetypes="cszsssssscccc" />
    <path
       style="fill:none;stroke:#000000;stroke-width:0.8;stroke-linecap:butt;stroke-linejoin:miter;stroke-opacity:1;stroke-miterlimit:4;stroke-dasharray:none"
       d="m 143.2585,115.74739 c 0.47459,-0.38037 2.38037,-1.1097 3.75942,-1.98645 1.75473,-1.14959 1.9269,-2.1484 4.40761,-3.13878 1.40388,-1.66608 1.71218,-2.85312 0.89336,-4.68671 -0.57066,-1.15771 0.77836,-2.37016 1.82806,-2.8476 2.24991,-1.0974 4.07337,-1.30551 5.69691,-2.3797 1.17082,-0.741841 2.11885,-1.87975 2.63057,-2.954695 1.01817,-2.138837 0.56614,-3.266003 2.79173,-4.780307 2.20213,-1.498347 4.68049,-1.240569 6.00095,-3.919426 0.41978,-0.851619 1.31782,-2.343107 0.99524,-4.769562 -0.61795,-1.415617 -0.71306,-3.631795 -1.20165,-3.561844"
       id="path9926"
       sodipodi:nodetypes="ccccccssscc" />
    <path
       style="fill:none;stroke:#000000;stroke-width:0.8;stroke-linecap:butt;stroke-linejoin:miter;stroke-opacity:1;stroke-miterlimit:4;stroke-dasharray:none"
       d="m 86.188425,179.91849 c -0.882184,4.40282 -3.896766,10.17444 -9.503256,15.09042 3.432238,2.54361 9.064145,4.03592 13.73239,3.2467 3.449041,-0.58308 5.478413,-6.25373 6.99907,-9.42332 2.651831,-5.52736 3.474451,-10.48756 3.753411,-16.22986 -0.1493,-4.03168 -0.96141,-7.41981 -2.429763,-11.35701"
       id="path9928"
       sodipodi:nodetypes="ccsscc" />
    <path
       style="fill:none;stroke:#000000;stroke-width:0.8;stroke-linecap:butt;stroke-linejoin:miter;stroke-opacity:1;stroke-miterlimit:4;stroke-dasharray:none"
       d="m 127.73778,151.38503 c 2.44692,5.47883 4.88344,12.19462 4.95657,18.26564 0.0325,2.69543 -0.11244,4.10716 -0.36104,6.54309 -0.1903,1.86468 -1.17335,6.30711 -1.17335,6.30711 -0.55261,2.90583 -0.30015,6.97686 -1.84434,6.97686 4.93805,-0.0819 9.10021,-0.51467 13.49077,-1.36928 2.75148,-0.17649 4.41362,-1.02002 6.06275,-3.74979 0.68528,-5.93875 1.16033,-10.97589 0.6256,-17.19916 -1.15326,-5.04303 -1.94709,-8.32081 -3.51015,-12.87596 -2.72393,-4.81157 -7.22275,-15.95358 -7.27435,-15.06162"
       id="path9930"
       sodipodi:nodetypes="cssccccccc" />
    <path
       style="fill:none;stroke:#000000;stroke-width:0.8;stroke-linecap:butt;stroke-linejoin:miter;stroke-opacity:1;stroke-miterlimit:4;stroke-dasharray:none"
       d="m 63.359142,182.461 c -0.776491,3.35234 -1.743862,8.83149 -2.354065,15.17732 0,0 7.021117,0.70297 10.416332,0.76648 1.145071,-2.99154 1.436638,-8.57065 2.428507,-13.04622"
       id="path9932"
       sodipodi:nodetypes="cccc" />
    <path
       style="fill:none;stroke:#000000;stroke-width:0.8;stroke-linecap:butt;stroke-linejoin:miter;stroke-opacity:1;stroke-miterlimit:4;stroke-dasharray:none"
       d="m 110.82942,157.41159 c 0.36652,3.35893 0.93258,9.70231 1.24937,14.2455 3.96376,-0.41026 7.44465,-0.35517 10.63469,-1.5003 -0.87483,-4.01856 -0.97169,-11.5258 -2.49103,-15.88342"
       id="path9934"
       sodipodi:nodetypes="cccc" />
    <path
       style="fill:none;stroke:#000000;stroke-width:0.8;stroke-linecap:butt;stroke-linejoin:miter;stroke-opacity:1;stroke-miterlimit:4;stroke-dasharray:none"
       d="m 61.591357,158.91891 c 2.576542,-0.65453 2.839595,0.367 6.759977,-1.5666 2.653736,-1.30888 0.106489,-5.11713 -0.323135,-5.98871 -0.670978,-1.36122 -6.938385,0.75887 -6.965649,1.09441 0,0 -1.310101,5.58226 0.528807,6.4609 z"
       id="path9936"
       sodipodi:nodetypes="csscc" />
    <path
       style="fill:none;stroke:#000000;stroke-width:0.8;stroke-linecap:butt;stroke-linejoin:miter;stroke-opacity:1;stroke-miterlimit:4;stroke-dasharray:none"
       d="m 70.365498,166.90416 c 0.192809,1.54591 -1.25672,2.90878 -1.267298,4.454 -0.02076,3.0341 6.948071,3.06287 7.619442,1.04631 0.713072,-2.1418 0.192875,-2.83788 -0.734234,-4.73028 -1.526185,-3.11522 -1.842522,-4.60947 -5.61791,-0.77003 z"
       id="path9938" />
  </g>
</svg>
