<?xml version="1.0" encoding="UTF-8" standalone="no"?>
<!-- Created with Inkscape (http://www.inkscape.org/) -->

<svg
   width="119.01579mm"
   height="89.98983mm"
   viewBox="0 0 119.01579 89.98983"
   version="1.1"
   id="svg5"
   inkscape:version="1.1.1 (3bf5ae0d25, 2021-09-20)"
   sodipodi:docname="pretty_face.svg"
   xmlns:inkscape="http://www.inkscape.org/namespaces/inkscape"
   xmlns:sodipodi="http://sodipodi.sourceforge.net/DTD/sodipodi-0.dtd"
   xmlns="http://www.w3.org/2000/svg"
   xmlns:svg="http://www.w3.org/2000/svg">
  <sodipodi:namedview
     id="namedview7"
     pagecolor="#ffffff"
     bordercolor="#666666"
     borderopacity="1.0"
     inkscape:pageshadow="2"
     inkscape:pageopacity="0.0"
     inkscape:pagecheckerboard="0"
     inkscape:document-units="mm"
     showgrid="false"
     inkscape:zoom="1.2689249"
     inkscape:cx="390.48805"
     inkscape:cy="153.6734"
     inkscape:window-width="1920"
     inkscape:window-height="935"
     inkscape:window-x="0"
     inkscape:window-y="32"
     inkscape:window-maximized="1"
     inkscape:current-layer="layer1" />
  <defs
     id="defs2" />
  <g
     inkscape:label="Layer 1"
     inkscape:groupmode="layer"
     id="layer1"
     transform="translate(-30.110761,-96.296228)">
    <path
       style="fill:none;stroke:#000000;stroke-width:1;stroke-linecap:butt;stroke-linejoin:miter;stroke-miterlimit:4;stroke-dasharray:none;stroke-opacity:1"
       d="m 43.056392,138.104 c 0.713342,8.23237 3.858993,18.10463 6.203109,23.73691 4.091533,9.83087 8.38861,12.8554 12.03994,15.5356 7.308573,5.36474 16.167353,8.80241 29.070885,8.37119 5.789592,0.0327 16.000754,-0.37476 24.724294,-5.6508 6.88331,-4.16305 13.1244,-13.14426 13.57612,-14.99659 1.09946,-4.50851 7.00918,-2.56738 4.27613,-6.22181 -2.645,-3.5367 4.38474,-19.4885 6.74066,-23.46464"
       id="path929"
       sodipodi:nodetypes="csscsssc" />
    <path
       style="fill:none;stroke:#000000;stroke-width:1;stroke-linecap:butt;stroke-linejoin:miter;stroke-miterlimit:4;stroke-dasharray:none;stroke-opacity:1"
       d="m 55.619651,124.27763 c -0.349985,5.04276 0.271963,7.12721 3.953785,10.51602 3.028848,1.63201 6.938305,1.98167 10.202179,0.86527 3.198255,-1.09396 6.290458,-3.88742 6.732463,-7.5834 0.730946,-4.40594 0.197984,-7.41213 -1.905533,-9.70275 -2.660324,-2.89696 -6.918519,-4.1352 -11.454082,-2.92338 -4.341712,0.78235 -6.318547,4.18364 -7.528812,8.82824 z"
       id="path931"
       sodipodi:nodetypes="ccscscc" />
    <path
       style="fill:none;stroke:#000000;stroke-width:1;stroke-linecap:butt;stroke-linejoin:miter;stroke-miterlimit:4;stroke-dasharray:none;stroke-opacity:1"
       d="m 112.71377,137.15024 c 4.94232,-0.20485 7.33136,-2.08599 9.85732,-6.67179 1.09884,-3.02925 0.92826,-8.04784 -0.78248,-10.57958 -1.93885,-2.86931 -4.84382,-4.75182 -8.96349,-4.80366 -5.00822,0.23818 -7.66767,1.60773 -9.73967,4.55566 -1.62087,2.88138 -2.03803,8.45649 -0.25892,12.11522 1.77911,3.65873 5.18819,5.20166 9.88724,5.38415 z"
       id="path933"
       sodipodi:nodetypes="ccscccc" />
    <path
       style="fill:none;stroke:#000000;stroke-width:1;stroke-linecap:butt;stroke-linejoin:miter;stroke-miterlimit:4;stroke-dasharray:none;stroke-opacity:1"
       d="m 132.86093,129.02687 c -1.37375,-3.89918 -2.65821,-7.69973 -3.61774,-11.72094 -1.34334,-5.62969 -0.2319,-8.77526 1.31227,-11.65347 0.69708,-1.29931 3.05658,-2.84437 5.70831,-2.70917 2.45769,0.22413 3.2001,1.43013 4.08096,2.44958 1.2764,1.56171 2.74314,4.57819 3.25408,6.78527 1.38777,5.99476 1.35508,10.16993 0.12543,13.94146 -1.02751,3.15154 -1.78468,6.5268 -4.03671,9.29426"
       id="path935"
       sodipodi:nodetypes="cssccssc" />
    <path
       style="fill:none;stroke:#000000;stroke-width:1;stroke-linecap:butt;stroke-linejoin:miter;stroke-miterlimit:4;stroke-dasharray:none;stroke-opacity:1"
       d="m 51.527347,117.88063 c -3.266832,-1.44209 -5.206531,-5.70961 -8.707439,-9.9621 -3.616978,-4.39349 -3.174308,-9.812438 -4.889948,-8.306096 -1.352142,1.250716 -2.999311,4.531556 -4.467421,9.285026 -1.696559,5.49314 -0.734037,12.43707 0.21156,14.88663 1.368865,3.54602 4.185223,9.12245 9.382293,14.31991"
       id="path937"
       sodipodi:nodetypes="cscssc" />
    <path
       style="fill:none;stroke:#000000;stroke-width:1;stroke-linecap:butt;stroke-linejoin:miter;stroke-miterlimit:4;stroke-dasharray:none;stroke-opacity:1"
       d="m 83.024989,123.88572 c -0.168323,7.19309 -0.04906,22.00635 0.827897,24.93391 0.967222,3.2289 3.004378,4.76026 6.051264,4.68563 4.516422,-0.0116 7.3886,-3.77933 8.834634,-7.33292"
       id="path939"
       sodipodi:nodetypes="cscc" />
    <path
       style="fill:none;stroke:#000000;stroke-width:1;stroke-linecap:butt;stroke-linejoin:miter;stroke-miterlimit:4;stroke-dasharray:none;stroke-opacity:1"
       d="m 37.9276,116.35941 c -0.739546,1.37387 -0.676582,3.45755 -0.07311,4.22201 0.72258,0.91534 2.431789,1.63338 2.922666,1.64454 1.546136,0.0351 2.576074,-0.70183 3.275407,-1.64762 0.834974,-1.06174 1.124269,-3.16318 0.573644,-4.49719 -0.538417,-1.30444 -2.55601,-1.97197 -3.684077,-1.82505 -1.752835,0.22828 -2.283896,1.18739 -3.014527,2.10331 z"
       id="path3995"
       sodipodi:nodetypes="csscssc" />
    <path
       style="fill:none;stroke:#000000;stroke-width:1;stroke-linecap:butt;stroke-linejoin:miter;stroke-miterlimit:4;stroke-dasharray:none;stroke-opacity:1"
       d="m 133.97257,113.05038 c -0.73955,1.37387 -1.17989,1.74776 -0.0713,4.154 0.48798,1.05917 2.42997,1.70139 2.92085,1.71255 1.54614,0.0351 2.57608,-0.70183 3.27541,-1.64762 0.83497,-1.06174 1.12427,-3.16318 0.57364,-4.49719 -0.53841,-1.30444 -2.55601,-1.97197 -3.68407,-1.82506 -1.75284,0.22829 -2.2839,1.1874 -3.01453,2.10332 z"
       id="path3995-3"
       sodipodi:nodetypes="csscssc" />
    <path
       style="fill:none;stroke:#000000;stroke-width:1.5;stroke-linecap:butt;stroke-linejoin:miter;stroke-opacity:1;stroke-miterlimit:4;stroke-dasharray:none"
       d="m 73.152828,161.28983 c 2.491981,1.51919 3.444519,3.06342 6.109275,4.3388 3.355549,1.60601 7.596633,2.67076 11.217851,2.25397 3.799673,-0.17919 7.069402,-1.05761 9.889656,-2.98269 2.79958,-2.23103 5.64897,-4.06534 6.10874,-4.97553"
       id="path5082"
       sodipodi:nodetypes="csccc" />
    <path
       style="fill:#4ab563;stroke-width:5.66929;stroke-miterlimit:4;stroke-dasharray:none"
       id="path5604"
       sodipodi:type="arc"
       sodipodi:cx="70"
       sodipodi:cy="129"
       sodipodi:rx="5"
       sodipodi:ry="5"
       sodipodi:start="0"
       sodipodi:end="6.2732544"
       sodipodi:open="true"
       sodipodi:arc-type="arc"
       d="m 75.360706,129.64064 a 4.8579288,4.5087676 0 0 1 -4.845868,4.50875 4.8579288,4.5087676 0 0 1 -4.86993,-4.48636 4.8579288,4.5087676 0 0 1 4.821687,-4.53103 4.8579288,4.5087676 0 0 1 4.893871,4.46386" />
    <path
       style="fill:#4b2d83;stroke-width:5.66929;stroke-miterlimit:4;stroke-dasharray:none"
       id="path5630"
       sodipodi:type="arc"
       sodipodi:cx="107.5"
       sodipodi:cy="129"
       sodipodi:rx="5"
       sodipodi:ry="5"
       sodipodi:start="0"
       sodipodi:end="6.2732544"
       sodipodi:open="true"
       sodipodi:arc-type="arc"
       d="m 110.15902,129.26315 a 3.7637904,3.9925749 0 0 1 -3.75444,3.99257 3.7637904,3.9925749 0 0 1 -3.77309,-3.97274 3.7637904,3.9925749 0 0 1 3.73571,-4.01229 3.7637904,3.9925749 0 0 1 3.79164,3.95281" />
    <path
       style="fill:none;stroke:#000000;stroke-width:1;stroke-linecap:butt;stroke-linejoin:miter;stroke-miterlimit:4;stroke-dasharray:none;stroke-opacity:1"
       d="m 51.527347,117.88063 c 0.970234,-4.87981 2.73763,-9.13241 5.952652,-13.14734 1.703813,-2.12741 3.939014,-4.04136 6.338475,-5.166265 3.782756,-1.773422 7.526614,-2.868207 12.19575,-3.25599 7.232394,-0.687045 14.155575,-0.133253 19.9831,-0.124788 8.668726,-0.291462 15.392066,1.391891 20.764596,4.082573 4.56452,2.28602 9.32604,7.15492 11.76139,14.21166"
       id="path5745"
       sodipodi:nodetypes="ccsccsc" />
    <path
       style="fill:#f2b6bc;fill-opacity:0.364054;stroke-width:5.56041"
       d="M 188.8062,333.16117 C 147.4387,326.71718 104.88555,300.24587 86.622294,269.59497 72.176232,245.35043 55.689336,195.17477 52.753579,166.52009 51.845878,157.66042 51.258187,156.46646 43.506918,147.73442 33.887196,136.89751 22.752948,119.0566 17.281417,105.7121 12.238057,93.411867 10.848857,66.119888 14.533939,51.735605 17.372898,40.654066 24.775442,22.661023 28.464503,17.875185 l 2.664836,-3.457102 4.081533,11.190858 c 3.087207,8.464586 7.773361,16.157362 19.235813,31.577448 15.869233,21.348395 22.995962,28.190778 26.83805,25.767252 1.203713,-0.759283 3.625715,-6.328228 5.382224,-12.375434 6.197616,-21.336773 19.685651,-41.188553 34.877921,-51.333563 11.29437,-7.542092 31.69156,-14.1212297 50.16671,-16.1813309 17.96864,-2.0036219 79.21369,-2.06970892 99.90237,-0.1078002 21.10436,2.0013256 36.18295,6.0218201 52.25669,13.9335081 11.09299,5.460104 15.2395,8.536973 23.66925,17.563466 12.91859,13.833097 19.71858,26.768348 25.25453,48.040298 6.43258,24.717275 12.56702,41.822965 14.99851,41.822965 2.90109,0 2.32643,-3.40553 -3.84793,-22.80348 -10.20588,-32.063788 -10.98554,-45.884362 -3.46482,-61.420072 3.5318,-7.29575 11.36089,-12.139544 19.62126,-12.139544 16.02563,0 32.15994,36.32443 29.73256,66.939249 -0.94204,11.881367 -8.12966,35.546307 -13.40509,44.135767 -10.92384,17.7862 -22.97108,45.53842 -28.82598,66.40406 -4.14792,14.78232 -4.49644,27.80849 -0.8882,33.19822 l 2.66099,3.97478 -5.58581,2.3339 c -7.75923,3.24201 -9.8616,5.46851 -15.0246,15.9118 -6.12991,12.39904 -21.91288,31.71586 -35.12362,42.98788 -18.94063,16.16103 -45.33132,26.57778 -76.18305,30.07044 -18.06752,2.04538 -53.17727,1.66306 -68.65245,-0.74758 z m 58.00462,-61.81424 c 4.66273,-1.13698 10.77331,-3.24497 13.57908,-4.68443 6.53445,-3.35236 29.80911,-21.13694 30.78786,-23.52554 0.40939,-0.9991 -0.54347,-2.50575 -2.11746,-3.34812 -2.38106,-1.27432 -4.26059,-0.39225 -11.18906,5.25108 -20.8622,16.99249 -32.22888,21.5567 -54.19756,21.76264 -15.92451,0.14928 -31.26168,-4.17977 -41.81436,-11.80246 -17.58308,-12.7011 -17.97225,-12.91561 -19.3837,-10.6851 -0.73426,1.16033 -1.31493,2.77175 -1.29038,3.5809 0.0525,1.73036 16.33326,14.11275 22.7138,17.27503 18.13143,8.98621 41.84169,11.31383 62.91178,6.176 z M 235.69421,216.9929 c 4.96626,-1.47481 9.51891,-4.2758 13.62698,-8.38385 6.92184,-6.92186 12.42671,-16.58147 11.22869,-19.70347 -1.28335,-3.34436 -3.12343,-2.39638 -5.65561,2.91363 -8.13285,17.05479 -26.41889,25.99137 -39.42323,19.26656 -10.30673,-5.32982 -13.0483,-21.82597 -13.13704,-79.04626 -0.0375,-24.16062 -0.39865,-29.05605 -2.14376,-29.05605 -2.78844,0 -3.34359,15.60037 -2.09412,58.84769 1.21897,42.19199 3.10768,48.36891 16.69795,54.60959 7.2017,3.30703 11.26228,3.41431 20.90014,0.55216 z m 92.38167,-62.9445 c 7.3623,-2.12504 18.06498,-12.56689 22.6936,-22.1406 4.35177,-9.00108 4.81709,-25.90148 1.02565,-37.252078 -3.09293,-9.259439 -13.27156,-19.391082 -23.34654,-23.238751 -10.87841,-4.154501 -30.24215,-2.751825 -40.71705,2.949476 -8.94731,4.869859 -15.50586,12.86444 -17.92973,21.855589 -2.72456,10.106454 -1.04639,31.306544 3.13852,39.648364 8.99633,17.9325 30.93101,25.16428 55.13555,18.178 z m -171.84465,-5.6282 c 15.46471,-7.37605 22.52708,-19.74296 22.51042,-39.41799 -0.0118,-13.15134 -2.12933,-19.828891 -8.54905,-26.950429 -10.09064,-11.193788 -25.70733,-16.017474 -41.94031,-12.954531 -12.51308,2.36105 -19.89896,6.780018 -25.64944,15.346054 -13.387472,19.942246 -11.877254,45.401896 3.55954,60.007746 10.9262,10.33805 33.04026,12.09112 50.06884,3.96915 z M 50.437187,97.74498 c 4.823379,-3.378427 7.674908,-9.903468 7.674908,-17.562189 0,-7.951365 -4.355444,-13.088777 -12.371441,-14.592587 -12.381473,-2.322779 -23.619347,10.702027 -20.225897,23.442013 2.393172,8.984658 17.162579,14.147973 24.92243,8.712763 z M 415.95133,82.726274 c 4.57376,-4.573755 6.69551,-13.210548 4.95197,-20.157375 -1.25282,-4.99166 -8.98495,-9.593571 -16.13071,-9.600477 -7.92777,-0.0077 -17.11342,8.926224 -17.11342,16.644356 0,7.717642 2.28107,12.404047 7.68708,15.792968 6.59753,4.135848 14.86484,3.060771 20.60508,-2.679472 z"
       id="path4814"
       transform="matrix(0.26458333,0,0,0.26458333,30.110761,96.296228)" />
    <path
       style="fill:#f2b6bc;fill-opacity:0.364054;stroke-width:5.56041"
       d="M 181.69225,331.16889 C 148.4329,323.90389 114.55767,304.06205 95.249735,280.53664 78.713153,260.38794 59.216839,208.09632 53.676508,169.03192 52.148776,158.26001 50.509152,155.04725 40.240934,142.70565 31.604228,132.325 20.100188,112.1826 16.76365,101.59933 12.633,88.497177 12.258072,61.950679 16.02479,49.284942 19.661169,37.057476 27.010487,19.657218 29.363369,17.704499 c 1.546789,-1.28372 2.455988,-0.150793 4.346322,5.415823 3.068286,9.035423 10.479166,21.109468 23.815968,38.801742 14.595078,19.36147 21.859759,25.168374 25.142082,20.096906 0.65462,-1.011445 3.310928,-7.714142 5.902904,-14.894885 C 100.85536,33.090838 119.02268,16.206079 153.004,7.2395376 175.40865,1.3276935 265.48936,0.80387487 291.46589,6.4343828 c 25.09186,5.4387522 41.86363,14.2729602 56.15968,29.5810342 12.30436,13.175392 18.8355,25.869367 25.37223,49.313736 5.36735,19.250277 11.40355,36.851057 13.34525,38.913037 0.82979,0.88117 1.86115,0.8526 2.79106,-0.0773 0.98579,-0.98579 -0.78494,-9.25579 -5.33932,-24.936712 -5.75039,-19.798849 -6.83281,-25.528951 -6.93304,-36.7025 -0.0987,-11.002885 0.45588,-14.417086 3.28139,-20.200906 5.85546,-11.986152 18.95987,-16.952085 27.73935,-10.511862 11.57309,8.489492 19.52388,28.647184 20.61302,52.260289 0.98084,21.265561 -2.89081,34.604211 -20.22127,69.666401 -14.41553,29.1648 -21.14267,47.37756 -23.79055,64.40944 -1.50887,9.70539 -1.41795,12.03535 0.67782,17.37066 2.52642,6.43164 2.22563,8.69823 -1.15427,8.69823 -3.51707,0 -11.08893,7.51119 -14.65319,14.53576 -4.63717,9.13914 -15.71834,24.02562 -25.72115,34.5539 -16.31304,17.16999 -36.78294,28.84371 -62.64769,35.72712 -13.66723,3.63729 -17.23039,3.94546 -50.74362,4.38886 -30.85899,0.40827 -37.84315,0.084 -48.54934,-2.25467 z m 59.0153,-58.15665 c 6.16086,-1.09893 14.10529,-3.29656 17.65431,-4.88361 8.24802,-3.68833 34.01286,-23.61713 33.29963,-25.75685 -0.2973,-0.8919 -1.57825,-2.2762 -2.84655,-3.07622 -1.78374,-1.12515 -5.0959,0.65289 -14.62436,7.85064 -20.64067,15.59185 -34.57498,20.19276 -56.45412,18.64034 -15.46029,-1.09698 -23.94985,-4.11186 -38.45107,-13.65508 -14.54356,-9.57107 -16.43317,-10.3693 -17.56495,-7.41994 -1.3591,3.54175 0.96431,6.36617 11.63808,14.14775 18.53954,13.51603 42.58807,18.56968 67.34903,14.15297 z m 2.52511,-59.24581 c 7.61342,-4.707 17.90397,-18.21298 17.90397,-23.49829 0,-5.3567 -4.0111,-4.09842 -7.26455,2.27887 -4.06185,7.96189 -14.98366,17.15914 -22.6771,19.09637 -7.14238,1.79848 -14.3342,0.39778 -18.82508,-3.6664 -4.05119,-3.66628 -7.14328,-15.67638 -7.90351,-30.69831 -0.36855,-7.2824 -1.00188,-19.8611 -1.4074,-27.95265 -0.40553,-8.09156 -0.74469,-21.82882 -0.75369,-30.52724 -0.0132,-12.6221 -0.43527,-15.81532 -2.09108,-15.81532 -3.29679,0 -4.14878,20.00189 -2.5066,58.84769 1.7003,40.22044 3.15985,46.69697 11.73767,52.08378 8.00217,5.0253 9.03686,5.28778 18.35861,4.65721 6.18636,-0.41847 10.5117,-1.76571 15.42876,-4.80571 z m 87.73563,-60.73823 c 7.90391,-3.82622 16.24351,-12.7874 20.39211,-21.912 4.53161,-9.96699 4.43055,-29.22686 -0.20295,-38.678983 -3.8694,-7.893423 -14.33582,-18.139697 -21.65197,-21.196581 -6.56995,-2.745101 -26.06861,-2.701602 -35.43206,0.07905 -9.27066,2.753091 -18.43769,10.550576 -22.45752,19.102386 -2.44609,5.203837 -3.12331,9.461079 -3.12331,19.634288 0,26.29372 7.65313,38.40471 28.68825,45.39884 8.32723,2.76878 25.6204,1.52659 33.78745,-2.427 z m -175.7575,-3.85576 c 16.54301,-7.54566 22.29967,-16.71802 23.25379,-37.05133 0.82212,-17.520065 -1.52268,-24.176619 -11.75787,-33.378926 -13.58205,-12.211438 -33.80538,-14.48139 -50.85302,-5.70796 -9.86006,5.074396 -15.56063,11.793852 -19.489936,22.973434 -7.450184,21.197112 -0.396532,44.745032 15.932506,53.189102 11.96898,6.18941 29.31318,6.17957 42.91453,-0.0243 z M 52.855789,95.739323 C 57.241192,91.161948 59.332254,81.563779 57.51848,74.337129 56.369287,69.758377 48.703069,64.745568 42.838227,64.73796 30.629639,64.72213 20.264916,80.972674 25.83976,91.389365 c 2.462206,4.600674 10.366,8.640185 16.917368,8.646215 4.690626,0.004 6.86449,-0.920511 10.098661,-4.296257 z M 415.24582,83.253565 c 5.20058,-4.765976 5.47654,-5.48229 5.49536,-14.263886 0.019,-8.876737 -0.17978,-9.38129 -4.97912,-12.636335 -12.61728,-8.55739 -28.10289,0.116633 -28.10289,15.741393 0,5.058335 0.90302,7.075715 5.00205,11.174747 7.05121,7.051205 14.87905,7.045688 22.5846,-0.01592 z"
       id="path4970"
       transform="matrix(0.26458333,0,0,0.26458333,30.110761,96.296228)" />
    <path
       style="fill:#f2b6bc;fill-opacity:0.364054;stroke-width:5.56041"
       d="m 397.56935,80.547778 c -1.33195,-1.011445 -3.12768,-3.739787 -3.99051,-6.062982 -3.19506,-8.602802 7.05321,-18.815345 15.61471,-15.56027 5.30573,2.017235 6.36803,3.787177 6.39574,10.656182 0.0398,9.862194 -10.79291,16.455057 -18.01994,10.96707 z"
       id="path5009"
       transform="matrix(0.26458333,0,0,0.26458333,30.110761,96.296228)" />
    <path
       style="fill:#f2b6bc;fill-opacity:0.364054;stroke-width:5.56041"
       d="m 34.940817,92.701239 c -3.965744,-2.417961 -4.781375,-3.816626 -4.781375,-8.199227 0,-6.530242 6.599241,-13.884782 12.458837,-13.884782 4.105464,0 11.08024,5.839261 11.08024,9.276341 0,5.03317 -3.589888,11.579627 -7.442405,13.571842 -5.314694,2.748334 -5.58422,2.730132 -11.315297,-0.764174 z"
       id="path5048"
       transform="matrix(0.26458333,0,0,0.26458333,30.110761,96.296228)" />
    <path
       style="fill:#f2b6bc;fill-opacity:0.364054;stroke-width:5.56041"
       d="m 397.15505,78.775661 c -4.85855,-4.858542 -4.61762,-10.320643 0.6893,-15.627561 9.57948,-9.579482 20.86368,-1.317837 15.55473,11.388279 -1.83048,4.380954 -6.77612,7.850389 -11.19064,7.850389 -0.79326,0 -3.06728,-1.624998 -5.05339,-3.611107 z"
       id="path5087"
       transform="matrix(0.26458333,0,0,0.26458333,30.110761,96.296228)" />
    <path
       style="fill:#f2b6bc;fill-opacity:0.364054;stroke-width:5.56041"
       d="m 398.44933,78.872278 c -4.95238,-4.259862 -4.98843,-10.311929 -0.0906,-15.209775 9.79016,-9.790163 21.50846,2.220142 12.87499,13.19582 -4.1392,5.262136 -8.25449,5.910427 -12.78441,2.013955 z"
       id="path5126"
       transform="matrix(0.26458333,0,0,0.26458333,30.110761,96.296228)" />
    <path
       style="fill:#f2b6bc;fill-opacity:0.364054;stroke-width:5.56041"
       d="m 33.679184,90.453832 c -3.930446,-3.930446 -3.842785,-6.945934 0.397194,-13.66317 3.040297,-4.816628 7.762202,-6.241208 12.560856,-3.789562 7.493471,3.828437 8.195081,10.558761 1.818021,17.439722 -4.411754,4.760361 -10.023778,4.765302 -14.776071,0.01295 z"
       id="path5165"
       transform="matrix(0.26458333,0,0,0.26458333,30.110761,96.296228)" />
    <path
       style="fill:#f2b6bc;fill-opacity:0.364054;stroke-width:5.56041"
       d="m 37.416214,92.147104 c -6.89802,-3.498887 -7.450202,-10.253191 -1.371627,-16.777775 3.809776,-4.089314 7.318256,-4.155383 12.306355,-0.231743 4.624131,3.637342 4.966998,8.408269 0.969492,13.490276 -3.568593,4.536729 -7.567542,5.718937 -11.90422,3.519242 z"
       id="path5204"
       transform="matrix(0.26458333,0,0,0.26458333,30.110761,96.296228)" />
    <path
       style="fill:#60e0c0;fill-opacity:0.36405399;stroke-width:2.97853"
       d="m 303.11389,151.2098 c -5.71998,-0.95026 -12.75362,-3.88371 -17.02177,-7.09912 -4.30118,-3.24028 -4.53516,-4.15751 -0.64605,-2.53254 4.70637,1.96645 12.53021,1.17855 17.24554,-1.73672 13.04988,-8.06812 11.42812,-27.98371 -2.77415,-34.06729 -1.54855,-0.66333 -4.95049,-1.21741 -7.55986,-1.23128 -8.33802,-0.0443 -15.69779,5.25389 -18.13354,13.05417 -1.02894,3.29508 -1.05374,3.18389 -1.09388,-4.90319 -0.10544,-21.244346 7.95735,-32.828042 26.15101,-37.570788 7.21796,-1.881585 19.48474,-1.828389 25.40312,0.110162 10.05301,3.292837 20.05182,12.846232 22.92582,21.90456 1.75454,5.529996 2.33688,18.454986 1.13461,25.182486 -1.73697,9.71951 -10.98198,21.63697 -20.1235,25.9406 -7.78178,3.6635 -15.69753,4.57865 -25.50735,2.94895 z"
       id="path4660"
       transform="matrix(0.26458333,0,0,0.26458333,30.110761,96.296228)" />
    <path
       style="fill:#60e0c0;fill-opacity:0.36405399;stroke-width:2.97853"
       d="m 124.51486,147.82373 c -7.94864,-1.84023 -11.52831,-3.83682 -16.49265,-9.19889 -5.34406,-5.77222 -8.059113,-11.1308 -9.221597,-18.20023 -2.648638,-16.1072 6.128647,-36.668841 18.282037,-42.827428 7.60988,-3.856222 21.89112,-5.476942 30.58988,-3.471522 9.23503,2.129053 19.38386,9.819699 23.1746,17.561404 2.87913,5.879948 3.86423,13.465746 2.8905,22.258436 -1.19358,10.77791 -4.86881,21.34689 -4.06891,11.70106 0.48663,-5.86815 -1.03889,-10.72622 -4.66008,-14.8401 -3.77883,-4.29298 -8.28716,-6.21974 -14.5192,-6.20517 -17.22847,0.0403 -25.38863,20.63362 -12.94816,32.67656 4.54838,4.40304 8.50421,5.70609 15.60936,5.14171 l 4.99371,-0.39666 -2.44432,1.48648 c -7.51817,4.57208 -21.63575,6.52519 -31.18517,4.31435 z"
       id="path4699"
       transform="matrix(0.26458333,0,0,0.26458333,30.110761,96.296228)" />
  </g>
</svg>
