<?xml version="1.0" encoding="UTF-8" standalone="no"?>
<!-- Created with Inkscape (http://www.inkscape.org/) -->

<svg
   width="119.01579mm"
   height="89.98983mm"
   viewBox="0 0 119.01579 89.98983"
   version="1.1"
   id="svg5"
   inkscape:version="1.1.1 (3bf5ae0d25, 2021-09-20)"
   sodipodi:docname="pretty_face.svg"
   xmlns:inkscape="http://www.inkscape.org/namespaces/inkscape"
   xmlns:sodipodi="http://sodipodi.sourceforge.net/DTD/sodipodi-0.dtd"
   xmlns="http://www.w3.org/2000/svg"
   xmlns:svg="http://www.w3.org/2000/svg">
  <sodipodi:namedview
     id="namedview7"
     pagecolor="#ffffff"
     bordercolor="#666666"
     borderopacity="1.0"
     inkscape:pageshadow="2"
     inkscape:pageopacity="0.0"
     inkscape:pagecheckerboard="0"
     inkscape:document-units="mm"
     showgrid="false"
     inkscape:zoom="1.3594416"
     inkscape:cx="226.93141"
     inkscape:cy="137.55648"
     inkscape:window-width="1920"
     inkscape:window-height="935"
     inkscape:window-x="0"
     inkscape:window-y="32"
     inkscape:window-maximized="1"
     inkscape:current-layer="layer1" />
  <defs
     id="defs2" />
  <g
     inkscape:label="Layer 1"
     inkscape:groupmode="layer"
     id="layer1"
     transform="translate(-30.110761,-96.296228)">
    <path
       style="fill:none;stroke:#000000;stroke-width:1;stroke-linecap:butt;stroke-linejoin:miter;stroke-miterlimit:4;stroke-dasharray:none;stroke-opacity:1"
       d="m 46.779655,160.09272 c 9.708536,15.40166 20.375588,26.4308 43.590671,25.65498 21.981914,0.12435 37.363874,-14.6189 44.677374,-26.96205"
       id="path929"
       sodipodi:nodetypes="ccc" />
    <path
       style="fill:none;stroke:#000000;stroke-width:1;stroke-linecap:butt;stroke-linejoin:miter;stroke-miterlimit:4;stroke-dasharray:none;stroke-opacity:1"
       d="m 54.63739,123.1534 c -0.0173,6.34379 0.58625,8.52467 5.143009,12.21052 5.303676,1.21704 13.268898,-0.25705 15.375587,-4.76655 2.226104,-4.66541 1.207342,-10.22948 -0.896175,-12.5201 -2.660324,-2.89696 -4.760673,-4.14486 -11.789276,-3.39584 -5.062124,1.14317 -6.62288,3.82737 -7.833145,8.47197 z"
       id="path931"
       sodipodi:nodetypes="cccscc" />
    <path
       style="fill:none;stroke:#000000;stroke-width:1;stroke-linecap:butt;stroke-linejoin:miter;stroke-miterlimit:4;stroke-dasharray:none;stroke-opacity:1"
       d="m 103.18188,131.98557 c 2.32342,2.14182 5.32822,3.25909 10.96381,3.44158 2.46807,-0.11432 6.41069,-0.81886 8.91743,-3.14915 2.16924,-2.01654 3.29891,-4.87356 3.318,-7.60644 -0.15648,-4.12098 -1.87739,-7.59546 -4.4525,-9.2402 -2.37944,-1.51976 -6.26086,-1.72611 -10.38053,-1.77795 -3.24028,0.12448 -5.95295,0.0284 -7.63882,1.10504 -2.15453,1.37596 -3.80091,3.69402 -3.969263,7.25702 -0.23008,4.18242 0.900113,8.08712 3.241873,9.9701 z"
       id="path933"
       sodipodi:nodetypes="ccscscscc" />
    <path
       style="fill:none;stroke:#000000;stroke-width:1;stroke-linecap:butt;stroke-linejoin:miter;stroke-miterlimit:4;stroke-dasharray:none;stroke-opacity:1"
       d="m 136.8461,124.98164 c -1.37375,-3.89918 -2.65821,-7.69973 -3.61774,-11.72094 -1.34334,-5.62969 -0.2319,-8.77526 1.31227,-11.65347 0.69708,-1.29931 3.05658,-2.84437 5.70831,-2.709167 2.45769,0.224131 3.2001,1.430127 4.08096,2.449577 1.2764,1.56171 2.74314,4.57819 3.25408,6.78527 1.38777,5.99476 1.35508,10.16993 0.12543,13.94146 -1.02751,3.15154 -1.78468,6.5268 -4.03671,9.29426"
       id="path935"
       sodipodi:nodetypes="cssccssc" />
    <path
       style="fill:none;stroke:#000000;stroke-width:1;stroke-linecap:butt;stroke-linejoin:miter;stroke-miterlimit:4;stroke-dasharray:none;stroke-opacity:1"
       d="m 49.606711,115.12533 c -5.028689,-6.24199 -7.336763,-8.20266 -9.72066,-13.36292 -0.05292,-0.11455 -1.289089,-5.628568 -3.876727,-4.905276 -1.773898,0.495837 -2.999311,4.531556 -4.467421,9.285026 -1.696559,5.49314 -0.734037,12.43707 0.21156,14.88663 1.368865,3.54602 4.185223,9.12245 9.382293,14.31991"
       id="path937"
       sodipodi:nodetypes="cssssc" />
    <path
       style="fill:none;stroke:#000000;stroke-width:1;stroke-linecap:butt;stroke-linejoin:miter;stroke-miterlimit:4;stroke-dasharray:none;stroke-opacity:1"
       d="m 83.024989,123.88572 c -0.168323,7.19309 -0.04906,22.00635 0.827897,24.93391 0.967222,3.2289 3.004378,4.76026 6.051264,4.68563 4.516422,-0.0116 7.3886,-3.77933 8.834634,-7.33292"
       id="path939"
       sodipodi:nodetypes="cscc" />
    <path
       style="fill:none;stroke:#000000;stroke-width:1;stroke-linecap:butt;stroke-linejoin:miter;stroke-miterlimit:4;stroke-dasharray:none;stroke-opacity:1"
       d="m 35.075251,113.54809 c -0.739546,1.37387 -0.900269,3.82586 -0.2968,4.59032 0.72258,0.91534 2.655476,1.26507 3.146353,1.27623 1.546136,0.0351 2.576074,-0.70183 3.275407,-1.64762 0.834974,-1.06174 1.124269,-3.16318 0.573644,-4.49719 -0.538417,-1.30444 -2.55601,-1.97197 -3.684077,-1.82505 -1.752835,0.22828 -2.283896,1.18739 -3.014527,2.10331 z"
       id="path3995"
       sodipodi:nodetypes="csscssc" />
    <path
       style="fill:none;stroke:#000000;stroke-width:1;stroke-linecap:butt;stroke-linejoin:miter;stroke-miterlimit:4;stroke-dasharray:none;stroke-opacity:1"
       d="m 137.18435,109.54431 c -0.73955,1.37387 -1.17989,1.74776 -0.0713,4.154 0.48798,1.05917 2.42997,1.70139 2.92085,1.71255 1.54614,0.0351 2.57608,-0.70183 3.27541,-1.64762 0.83497,-1.06174 1.12427,-3.16318 0.57364,-4.49719 -0.53841,-1.30444 -2.55601,-1.97197 -3.68407,-1.82506 -1.75284,0.22829 -2.2839,1.1874 -3.01453,2.10332 z"
       id="path3995-3"
       sodipodi:nodetypes="csscssc" />
  </g>
</svg>
