<?xml version="1.0" encoding="UTF-8" standalone="no"?>
<!-- Created with Inkscape (http://www.inkscape.org/) -->

<svg
   width="18.029955mm"
   height="24.066797mm"
   viewBox="0 0 18.029955 24.066797"
   version="1.1"
   id="svg5"
   xmlns:xlink="http://www.w3.org/1999/xlink"
   xmlns="http://www.w3.org/2000/svg"
   xmlns:svg="http://www.w3.org/2000/svg">
  <defs
     id="defs2">
    <linearGradient
       id="linearGradient922">
      <stop
         style="stop-color:#000000;stop-opacity:1;"
         offset="0"
         id="stop920" />
    </linearGradient>
    <linearGradient
       xlink:href="#linearGradient922"
       id="linearGradient924"
       x1="3.7703714"
       y1="20.671255"
       x2="10.119913"
       y2="20.671255"
       gradientUnits="userSpaceOnUse"
       gradientTransform="translate(65.479598,58.663944)" />
    <linearGradient
       xlink:href="#linearGradient922"
       id="linearGradient1063"
       gradientUnits="userSpaceOnUse"
       x1="3.7703714"
       y1="20.671255"
       x2="10.119913"
       y2="20.671255"
       gradientTransform="translate(76.450984,57.311248)" />
  </defs>
  <g
     id="layer1"
     transform="translate(-72.181308,-57.489462)">
    <path
       style="fill:none;stroke:url(#linearGradient924);stroke-width:1.05833;stroke-miterlimit:4;stroke-dasharray:none"
       id="path918"
       d="m 75.321837,81.001706 a 3,3 0 0 1 -2.588804,-3.341001 3,3 0 0 1 3.321374,-2.613937 3,3 0 0 1 2.638922,3.301558 3,3 0 0 1 -3.281555,2.663756" />
    <path
       style="fill:none;stroke:url(#linearGradient1063);stroke-width:1.05833;stroke-miterlimit:4;stroke-dasharray:none"
       id="path918-6"
       d="m 86.243642,79.642112 a 3,3 0 0 1 -2.532707,-3.383581 3,3 0 0 1 3.364238,-2.558344 3,3 0 0 1 2.583835,3.344699 3,3 0 0 1 -3.324969,2.609177" />
    <path
       style="font-variation-settings:normal;opacity:1;fill:none;fill-opacity:1;stroke:#000000;stroke-width:1.05833;stroke-linecap:butt;stroke-linejoin:miter;stroke-miterlimit:4;stroke-dasharray:none;stroke-dashoffset:0;stroke-opacity:1;stop-color:#000000;stop-opacity:1"
       d="M 78.710347,78.276079 81.376953,57.55701 v 0"
       id="path1198" />
    <path
       style="font-variation-settings:normal;opacity:1;fill:none;fill-opacity:1;stroke:#000000;stroke-width:1.05833;stroke-linecap:butt;stroke-linejoin:miter;stroke-miterlimit:4;stroke-dasharray:none;stroke-dashoffset:0;stroke-opacity:1;stop-color:#000000;stop-opacity:1"
       d="M 83.815769,77.540348 76.266471,58.455913"
       id="path1300" />
  </g>
</svg>
